<svg xmlns="http://www.w3.org/2000/svg" viewBox="0 0 32 32">
  <rect width="32" height="32" fill="#0a0a0a"/>
  <path d="M8 8 L8 24 L12 24 L12 20 L16 20 L20 24 L24 24 L20 20 C22 20 24 18 24 16 L24 12 C24 10 22 8 20 8 Z M12 12 L20 12 L20 16 L12 16 Z" fill="#00ffff"/>
  <path d="M8 8 L8 24 L12 24 L12 20 L16 20 L20 24 L24 24 L20 20 C22 20 24 18 24 16 L24 12 C24 10 22 8 20 8 Z M12 12 L20 12 L20 16 L12 16 Z" fill="#ff00ff" opacity="0.5" transform="translate(1, 1)"/>
  <rect x="6" y="6" width="20" height="20" fill="none" stroke="#00ff00" stroke-width="0.5" opacity="0.8"/>
</svg>
